# xmcd CD database file
#
# Track frame offsets:
#	150
#	18880
#	37739
#	51869
#	71445
#
# Disc length: 1204 seconds
#
# Revision: 0
# Processed by: cddbd v1.5.2PL0 Copyright (c) Steve Scherf et al.
# Submitted via: CDex 1.40Beta9
#
DISCID=3204b205
DTITLE=Nick Martin - Lonesome Time
DYEAR=2006
DGENRE=Country
TTITLE0=Lonesome time
TTITLE1=Better Day
TTITLE2=Time to Cry
TTITLE3=Circle
TTITLE4=Whiskey Whiskey
EXTD=YEAR: 2006 ID3G: 2
EXTT0=
EXTT1=
EXTT2=
EXTT3=
EXTT4=
PLAYORDER=
